# xmcd
#
# Track frame offsets:
#	150
#	16077
#	25957
#	38705
#	53942
#	67662
#	85905
#	102655
#	113705
#	129377
#	140540
#	153210
#	176790
#	189297
#	205205
#
# Disc length: 3018 seconds
#
# Revision: 3
# Processed by: cddbd v1.4PL0 Copyright (c) Steve Scherf et al.
# Submitted via: EasyCDDAExtractor 5.0.2.1
#
DISCID=c10bc80f
DTITLE=Gold City - Masters Of Gospel
DYEAR=1992
DGENRE=Country
TTITLE0=In My Robe Of White
TTITLE1=What A Lovely Name
TTITLE2=No Other Word For Grace
TTITLE3=I think I'll Read It Again
TTITLE4=He'll Never Let Go Of My Hand
TTITLE5=Walk On
TTITLE6=Glory Is Waiting
TTITLE7=Who But God
TTITLE8=Four In The Fire
TTITLE9=Come On In
TTITLE10=When I Get Carried Away
TTITLE11=Only God Knows
TTITLE12=Holy Anointing
TTITLE13=When He Reached Down His Hand
TTITLE14=Midnight Cry
EXTD=
EXTT0=
EXTT1=
EXTT2=
EXTT3=
EXTT4=
EXTT5=
EXTT6=
EXTT7=
EXTT8=
EXTT9=
EXTT10=
EXTT11=
EXTT12=
EXTT13=
EXTT14=
PLAYORDER=
